<svg xmlns="http://www.w3.org/2000/svg" width="1100.915" height="469.981" viewBox="0 0 291.284 124.349"><path d="M63.636 124.193c-3.366-.302-6.198-.799-9.125-1.6-1.817-.498-3.402-1.002-3.521-1.122-.19-.19.648-4.125.942-4.419.062-.061.637.074 1.278.302 4.693 1.666 11.297 2.664 14.742 2.228 4.44-.561 7.153-2.967 7.67-6.799.643-4.768-1.152-6.339-10.52-9.205-5.856-1.791-8.231-2.873-10.14-4.617-4.257-3.892-4.029-11.546.455-15.22 2.437-1.997 6.823-3.317 10.966-3.3 3.186.013 11.926 1.082 12.687 1.553.225.138.208.68-.064 2.107-.201 1.057-.428 1.984-.504 2.06-.076.076-1.25-.05-2.607-.278-6.401-1.082-11.98-1.198-14.523-.303-2.655.934-4.218 3.081-4.218 5.793 0 3.729 1.753 5.098 9.525 7.442 8.477 2.556 11.578 4.384 13.45 7.932.657 1.244.704 1.561.695 4.643-.01 3.005-.077 3.467-.746 5.068-1.467 3.512-4.934 6.31-8.931 7.208-1.804.406-5.766.683-7.51.527zm42.069-.23c-9.285-1.72-14.668-8.828-15.135-19.982-.18-4.319.192-7.464 1.264-10.676 2.88-8.628 10.07-13.386 19.295-12.77 3.405.227 5.531.767 8.202 2.082 7.795 3.837 11.084 13.364 8.703 25.2-2.386 11.858-11.175 18.213-22.33 16.146zm8.272-4.941c5.266-1.698 8.685-7.43 9.292-15.582.735-9.869-2.552-15.975-9.627-17.881-1.71-.461-5.968-.458-7.707.005-4.685 1.247-7.887 4.771-9.404 10.347-.48 1.768-.574 2.815-.569 6.35.007 4.848.451 7.056 2.093 10.403 2.828 5.766 9.496 8.429 15.922 6.358zm37.5 4.98c-4.637-.978-7.473-3.572-9.089-8.315l-.698-2.048-.079-16.084-.078-16.083 2.591.076 2.591.076.133 15.61c.131 15.514.136 15.62.739 17.112.733 1.815 2.293 3.488 3.972 4.262 1.042.481 1.73.574 4.284.577 2.723.004 3.22-.07 4.72-.711 2.005-.856 5.325-3.041 7.782-5.121l1.786-1.512V81.473l2.58.075 2.58.076v41.54h-4.763l-.17-2.595c-.093-1.427-.227-2.653-.298-2.723-.07-.071-.98.512-2.022 1.295-2.259 1.7-5.85 3.627-8.226 4.415-2.131.707-6.093.92-8.334.447zm81.757.205a91.432 91.432 0 0 0-1.984-.409c-2.521-.496-5.172-1.95-7.115-3.903-3.591-3.61-5.361-8.744-5.751-16.682-.383-7.788 1.324-13.753 5.073-17.727 4.668-4.948 12.443-6.246 22.808-3.807 2.158.508 2.976.81 2.976 1.098 0 .321-1.038 3.92-1.217 4.22-.027.046-1.163-.216-2.525-.581-4.348-1.166-9.06-1.538-12.127-.957-4.796.91-8.111 4.479-9.115 9.813-.845 4.492-.742 9.825.27 13.97 1.342 5.5 4.754 9.26 9.16 10.096 4.018.762 8.78-.293 13.215-2.928.974-.578 1.869-1.051 1.989-1.05.12 0 .61.864 1.089 1.918l.87 1.917-.738.6c-1.291 1.048-5.954 3.212-8.147 3.78-2.025.526-7.484.92-8.731.632zm38.639-.129c-7.275-1.145-12.064-5.615-14.1-13.158-.646-2.397-.693-2.954-.688-8.13.005-5.128.058-5.752.688-8.104 1.977-7.383 6.052-11.677 12.81-13.498 1.618-.436 2.888-.564 5.778-.58 5.906-.033 8.972.998 12.063 4.054 2.553 2.524 2.958 3.752 2.842 8.61-.085 3.578-.12 3.775-.96 5.48-1.476 2.997-3.908 4.588-8.505 5.565-2.038.432-3.584.542-7.953.564-2.984.014-6.89-.07-8.68-.189l-3.257-.215.183 1.67c.247 2.27 1.317 5.911 2.161 7.36.997 1.709 3.031 3.769 4.524 4.582 4.06 2.21 10.509 2.116 17.858-.258 1.577-.51 2.895-.888 2.93-.84.27.381 1.15 4.093 1.004 4.24-.365.364-5.169 1.808-7.816 2.35-3.06.625-8.493.874-10.882.497zm6.798-23.783c3.035-.392 4.696-1.05 6.044-2.396 1.402-1.4 1.833-2.69 1.833-5.492 0-4.488-3.185-7.105-9.017-7.41-4.232-.22-7.968.79-10.587 2.864-2.305 1.826-4.204 5.967-4.688 10.224l-.217 1.91 1.076.143c2.893.384 13 .486 15.556.157zm-86.315 2.098V81.472l2.447.076 2.448.076.075 2.847.075 2.847 1.34-1.61c1.63-1.957 3.957-3.713 5.99-4.518 1.24-.49 2.02-.598 4.294-.593 1.528.003 3.295.154 3.926.335l1.149.328-.17 1.637c-.32 3.066-.333 3.097-1.286 2.884-.463-.104-2.094-.188-3.626-.188-2.602 0-2.897.055-4.498.849-2.034 1.008-3.953 2.637-5.565 4.727l-1.175 1.523-.132 15.236-.133 15.236-2.58.075-2.58.076zM60.659 62.166c-7.32-1.315-11.2-6.116-11.2-13.855 0-6.947 3.488-10.856 11.165-12.51 1.803-.39 3.446-.48 8.767-.48h6.548v-1.605c0-3.174-1.044-5.139-3.212-6.044-2.627-1.098-8.436-.738-15.021.93-2.243.568-4.122.99-4.176.936-.148-.148-1.711-8.416-1.61-8.517.226-.227 7.508-2.006 9.864-2.41 3.89-.668 12.545-.66 15.081.014 5.719 1.52 8.954 4.584 10.222 9.685.285 1.146.344 3.891.281 12.904-.072 10.287.096 15.142.645 18.604l.15.948-4.59.452c-2.525.248-4.855.508-5.178.576-.527.112-.645-.072-1.162-1.797-.316-1.056-.6-1.954-.633-1.994-.031-.04-.7.363-1.484.897-1.792 1.22-4.157 2.312-6.198 2.863-1.94.523-6.384.74-8.26.403zm9.205-8.984c.805-.308 2.471-1.243 3.703-2.077l2.24-1.518.074-3.192.074-3.192-3.607-.138c-8.01-.306-11.248.877-11.89 4.343-.23 1.242.249 3.494.954 4.485 1.443 2.026 5.077 2.58 8.452 1.29zm41.794 8.97c-3.075-.298-7.242-1.129-10.65-2.123l-2.844-.83V.264h11.906V10.98c0 5.894.071 10.716.158 10.716.087 0 .494-.24.905-.532 1.4-.998 4.637-2.38 6.486-2.772 2.34-.496 5.565-.5 7.88-.01 5.796 1.229 9.91 5.465 11.556 11.9 1.61 6.298 1.213 15.007-.931 20.389-3.575 8.974-11.578 12.73-24.466 11.48zm8.688-10.3c.867-.373 1.846-1.106 2.645-1.98 2.255-2.468 3.108-5.782 2.885-11.215-.216-5.28-1.415-8.166-4.03-9.699-2.612-1.53-6.502-1.016-9.989 1.32l-1.654 1.109-.07 10.211-.069 10.211 1.79.282c.983.155 2.086.336 2.45.402 1.525.277 4.687-.059 6.042-.641zm39.7 10.193c-9.483-1.79-14.592-7.913-15.582-18.675-.998-10.85 2.568-19.223 9.788-22.979 3.704-1.927 5.451-2.269 11.513-2.253 6.004.015 7.85.36 11.51 2.145 2.736 1.335 5.634 4.233 6.97 6.97 1.714 3.514 2.108 5.547 2.127 10.98.018 5.32-.362 7.917-1.698 11.576-2.21 6.056-6.903 10.394-12.956 11.976-2.38.621-8.976.768-11.673.26zm9.194-9.998c2.997-1.535 4.499-4.878 4.834-10.763.422-7.43-1-11.471-4.665-13.262-1.829-.893-5.678-.891-7.689.004-3.734 1.663-5.302 5.814-5.006 13.249.257 6.45 2.112 10.087 5.736 11.25 1.89.608 5.113.38 6.79-.478zm36.307 10.013c-4.943-1.036-8.033-4.091-9.65-9.54-.423-1.428-.48-3.18-.562-17.397l-.092-15.808h11.896l.083 14.089c.092 15.608.045 15.182 1.863 17.06 1.055 1.09 2.278 1.496 4.437 1.474 2.143-.023 4.07-.73 6.736-2.47l1.996-1.303v-28.85h12.171v41.804h-10.509l-.335-1.958-.335-1.958-1.753 1.13c-2.478 1.597-4.067 2.355-6.648 3.17-2.777.876-6.664 1.11-9.298.557zm51.103.098c-3.339-.594-6.01-2.487-7.27-5.15-1.267-2.68-1.462-4.988-1.462-17.355V28.31H240.775V19.315H248.713V7.144h11.112v12.171h9.802l-.073 4.431-.072 4.432-4.829.072-4.828.072v10.776c0 10.303.024 10.814.529 11.642.29.477.833.983 1.207 1.125 1.058.402 4.03.276 6.068-.258 1.018-.267 1.89-.45 1.938-.406.048.045.384 2.133.748 4.64.54 3.73.596 4.6.31 4.779-.193.12-1.642.527-3.22.905-3.227.773-8.296 1.071-10.756.633z"/><path d="M.19 61.78V.197H10.12v123.166H.19z" fill="#981731" stroke="#981731" stroke-width=".38"/><path d="M23.463 61.778V.195h10.231v123.167H23.463z" fill="#981731" stroke="#981731" stroke-width=".378"/><path d="M281.767 35.27c-2.393-.503-3.83-1.892-4.489-4.34-.292-1.083-.29-3.198.002-4.283.629-2.335 1.948-3.7 4.213-4.362.894-.26 3.117-.36 4.104-.183 2.65.475 4.195 1.764 4.923 4.104.195.627.221.9.216 2.195-.006 1.396-.024 1.53-.307 2.386-.591 1.787-1.59 2.99-3.087 3.717-1.244.605-2.066.786-3.728.823-.784.017-1.615-.008-1.847-.057z" fill="#981731" stroke="#981731" stroke-width=".095"/><path d="M281.393 62.207a4.435 4.435 0 0 1-.898-.258c-.91-.408-2.166-1.597-2.747-2.6-.324-.56-.504-1.279-.623-2.493-.317-3.248.895-5.782 3.33-6.958 1.242-.6 2.097-.754 3.846-.693.84.029 1.602.109 1.947.203 2.005.549 3.556 1.923 4.17 3.696.243.701.26.857.259 2.265-.002 1.25-.038 1.642-.207 2.267-.547 2.021-1.857 3.556-3.594 4.212-.293.11-.895.26-1.337.333-.887.146-3.332.162-4.146.026z" fill="#981731" stroke="#981731" stroke-width=".09445506"/></svg>